<svg width="125" height="185" viewBox="0 0 125 185" fill="none" xmlns="http://www.w3.org/2000/svg">
<g clip-path="url(#clip0_411_158)">
<path d="M62.5 0C28.2622 0 0.5 27.613 0.5 61.6667V185H124.5V61.6667C124.5 27.613 96.7378 0 62.5 0Z" fill="#242424"/>
<path d="M53.8028 71.5333C44.5717 71.5333 37.08 64.0819 37.08 54.9005C37.08 51.7315 37.9756 48.7681 39.5256 46.25C34.7033 49.1792 31.5 54.438 31.5 60.4505C31.5 69.6319 38.9917 77.0833 48.2228 77.0833C54.2678 77.0833 59.5722 73.8972 62.5 69.1181C59.9683 70.6426 56.9889 71.5333 53.8028 71.5333Z" fill="#5D5E5E"/>
<path d="M70.3706 185H72.7128C54.4744 164.513 29.0889 150.432 0.5 146.647V148.377C28.0383 152.077 52.5283 165.489 70.3706 185Z" fill="#5D5E5E"/>
<path d="M80.6006 185H82.7878C62.9306 160.145 33.7217 142.998 0.5 138.887V140.617C32.7056 144.66 61.0878 161.121 80.6006 185Z" fill="#5D5E5E"/>
<path d="M37.855 185C26.85 177.514 14.1744 172.29 0.5 170.029V171.776C12.9344 173.883 24.5078 178.474 34.7206 185.017H37.855V185Z" fill="#5D5E5E"/>
<path d="M50.6167 185C36.6322 173.215 19.4272 165.078 0.5 162.2V163.948C18.2906 166.723 34.5483 174.174 47.93 185.017H50.6167V185Z" fill="#5D5E5E"/>
<path d="M59.6067 185H62.035C45.7256 168.881 24.3356 157.798 0.5 154.424V156.154C23.285 159.425 43.7622 169.823 59.6067 185Z" fill="#5D5E5E"/>
<path d="M94.6883 107.917L101.25 107.197L94.6883 106.461L96.5139 104.2L94.2233 106.015L93.5 99.4889L92.7767 106.015L90.4861 104.2L92.3117 106.461L85.75 107.197L92.3117 107.917L90.4861 110.195L92.7767 108.379L93.5 114.906L94.2233 108.379L96.5139 110.195L94.6883 107.917Z" fill="#5D5E5E"/>
<path d="M24.9383 85.5111L31.5 84.7917L24.9383 84.0723L26.7639 81.794L24.4733 83.6098L23.75 77.0834L23.0267 83.6098L20.7361 81.794L22.5617 84.0723L16 84.7917L22.5617 85.5111L20.7361 87.7894L23.0267 85.9736L23.75 92.5L24.4733 85.9736L26.7639 87.7894L24.9383 85.5111Z" fill="#5D5E5E"/>
</g>
<defs>
<clipPath id="clip0_411_158">
<rect width="124" height="185" fill="white" transform="translate(0.5)"/>
</clipPath>
</defs>
</svg>
