<svg width="107" height="185" viewBox="0 0 107 185" fill="none" xmlns="http://www.w3.org/2000/svg">
<g clip-path="url(#clip0_411_148)">
<path d="M76.2417 185C76.1738 185 76.1059 184.983 76.0549 184.949L0.237778 146.595C0.0849206 146.527 0 146.373 0 146.201V15.7764C0 15.6222 0.0679365 15.4852 0.20381 15.4167C0.322698 15.331 0.475556 15.331 0.611429 15.3995L76.4286 53.7528C76.5644 53.8213 76.6664 53.9755 76.6664 54.1296V184.572C76.6664 184.726 76.5984 184.863 76.4625 184.931C76.3946 184.983 76.3267 185 76.2417 185ZM0.849206 145.944L75.8341 183.887V54.4037L0.849206 16.4616V145.944Z" fill="#242424"/>
<path d="M30.7583 31.1245V130.87L76.2418 153.875V54.1296L30.7583 31.1245Z" fill="#242424"/>
<path d="M76.2418 154.304C76.1738 154.304 76.1059 154.287 76.0549 154.252L30.5715 131.247C30.4356 131.179 30.3337 131.025 30.3337 130.87V31.1245C30.3337 30.9704 30.4016 30.8333 30.5375 30.7648C30.6564 30.6791 30.8092 30.6792 30.9451 30.7477L76.4286 53.7528C76.5645 53.8213 76.6664 53.9754 76.6664 54.1296V153.875C76.6664 154.03 76.5984 154.167 76.4626 154.235C76.3946 154.287 76.3267 154.304 76.2418 154.304ZM31.1659 130.596L75.8172 153.19V54.4037L31.1659 31.8097V130.596Z" fill="#242424"/>
<path d="M106.575 169.652C106.507 169.652 106.44 169.635 106.389 169.6L30.5715 131.247C30.4356 131.179 30.3337 131.025 30.3337 130.87V0.428232C30.3337 0.274065 30.4016 0.137028 30.5375 0.0685093C30.6564 -0.0171389 30.8092 -0.0171389 30.9451 0.0513796L106.779 38.4218C106.915 38.4903 107.017 38.6444 107.017 38.7986V169.241C107.017 169.395 106.949 169.532 106.813 169.6C106.728 169.635 106.66 169.652 106.575 169.652ZM31.1659 130.596L106.151 168.538V39.0555L31.1659 1.11342V130.596Z" fill="#242424"/>
<path d="M76.2417 185C76.1568 185 76.0889 184.983 76.0209 184.932C75.9021 184.846 75.8171 184.709 75.8171 184.572V54.1297C75.8171 53.9755 75.9021 53.8214 76.0549 53.7528L106.389 38.4047C106.524 38.3362 106.677 38.3533 106.796 38.4218C106.915 38.5075 107 38.6445 107 38.7816V169.224C107 169.378 106.915 169.532 106.762 169.601L76.4286 184.949C76.3776 184.983 76.3097 185 76.2417 185ZM76.6663 54.4038V183.887L106.151 168.967V39.4839L76.6663 54.4038Z" fill="#242424"/>
<path d="M0.424603 146.629C0.339683 146.629 0.271746 146.612 0.20381 146.561C0.0679365 146.492 0 146.355 0 146.201V15.7762C0 15.622 0.0849206 15.4679 0.237778 15.3993L30.5714 0.0511872C30.7073 -0.0173313 30.8602 -0.000201677 30.979 0.0683168C31.0979 0.153965 31.1829 0.291002 31.1829 0.428039V130.87C31.1829 131.024 31.0979 131.178 30.9451 131.247L0.611429 146.595C0.543492 146.612 0.49254 146.629 0.424603 146.629ZM0.849206 16.0331V145.516L30.3337 130.596V1.11322L0.849206 16.0331Z" fill="#242424"/>
<path d="M45.8571 92.5L56.0476 87.3611L61.1428 92.5L50.9524 97.6389L45.8571 92.5Z" fill="#5D5E5E"/>
</g>
<defs>
<clipPath id="clip0_411_148">
<rect width="107" height="185" fill="white"/>
</clipPath>
</defs>
</svg>
