<?xml version="1.0" encoding="UTF-8"?>
<svg id="Layer_1" data-name="Layer 1" xmlns="http://www.w3.org/2000/svg" viewBox="0 0 559.15 559.15">
  <defs>
    <style>
      .cls-1 {
        fill: #ff7200;
      }

      .cls-2 {
        fill: #f3f3f3;
      }
    </style>
  </defs>
  <path class="cls-2" d="M467.06,213.36c-6.23,7.42-4.32,23.64-4.04,33.54.75,26.61,1.86,76.9,10.28,100.72,4.98,14.08,14.37,26.5,18.76,40.74-21.6,29.82-79.56,77.35-114.48,89.02-15.44,5.16-18.43,3.66-28.52-9.02,6.09.97,18.83,1.24,19.96-6.58,1.55-10.72-9.35-12.98-17.6-14.29-17.45-2.77-36.27-2.01-53.85-4.15-51.34-6.25-86.58-27.5-113.93-71.07-17.72-28.24-19.3-40.12-48.27-60.73-16.99-12.09-52.67-30.91-64.83-45.17-4.25-4.98-5.58-12.42-13.49-13.01.01-11.49,4.07-19.48,14-25,6.3,7.4,12.4,5.18,20.49,6.01,19.13,1.97,35.63,4.63,52.43,14.57,26.63,15.76,35.71,45.04,68.86,52.14,11.26,2.41,25.33.31,35.93,4.07s15.13,15.4,23.82,22.18c14.9,11.63,32.98,12.25,50.44,6.48,5.91-1.95,13.42-7.32,18.78-8.22,7.51-1.27,16.93.35,24.75-.25,23.63-1.81,49.06-13.1,44.28-41.25-.83-4.89-6.86-11.74-6.87-14.24-.01-4.38,7.06-7.1,7.95-10.22,3.37-11.86-12.21-3.95-16.82-2.76-7.86,2.04-12.6,1.96-20.02-1.52,1.16,3.22-2.12,10.76-.56,13.04,2.08,3.05,19.7,3.09,24.75,15.26,9.19,22.15-15.26,27.69-31.66,28.74-9.32.59-23.66,1.54-31.02-4.07-5.98-4.55-12.71-11.72-13.53-19.47-1.15-10.75-2.04-32.5-.98-42.99,1.21-11.98,10.04-18.2,18.51-25.49s16.98-13.19,25.95-19.05c7.87-5.14,24.04-12.45,30.04-17.95,3.61-3.31,2.3-8.16-2.24-8.85-5.48-.83-38.76,20.02-45.19,24.41-15.15,10.35-38.6,26.48-40.12,45.88-.95,12.07-1.04,42.52,2.85,53.22,4.71,12.96,27.53,20.26,4.19,25.82-20.99,5-43.92-2.2-53.49-22.53-6.73-14.28-10.43-56.04-10.55-72.52-.15-19.36,19.79-30.25,33.72-40.27,20.35-14.65,41.85-27.72,63.3-40.69,2.2-1.93.8-5.66-1.71-6.35-2.72-.74-17.69,7.43-21.3,9.34-17.47,9.2-68.94,39.28-79.41,53.59-12.71,17.37-4.13,51.61-4.66,72.33-.11,4.38-2.62,10.03-7.36,10.65-23.03,3.03-31.82-11.43-41.55-29.05-7.67-29.94-17.42-54.49,13-75,.31-.21,1.95.08,2.9-.56,23.77-15.93,47.96-31.28,71.58-47.45,4.92-3.38,1.77-8.82-3.91-7.99l-67.56,41.61c-43.12-10.25-80.11,29.28-121.41,25.29-6.54-.63-12.39-4.87-17.61,3.11-23.65-12.35-14.69-33.68,4.08-45.42,31.94-19.99,79.29-40.41,115.91-49.09,20.11-4.77,31.17-8.12,51.53-1.5,11.58,3.76,36.53,16.7,46.25,17.84,3.96.46,15.69-4.36,21.75-4.8,27.67-2.03,34.44,14.67,57.08,18.88,3.91.73,8.07.37,12.6,1.4,18.45,4.21,24.63,18.01,40.54,24.46,11.71,4.75,22.77,4.94,32.79,14.21,11.67,10.79,13.24,25.16,14.47,40.03Z"/>
  <path class="cls-1" d="M193.06,258.36c9.73,17.62,18.52,32.08,41.55,29.05,4.74-.62,7.25-6.27,7.36-10.65.53-20.72-8.06-54.96,4.66-72.33,10.47-14.31,61.94-44.39,79.41-53.59,3.61-1.9,18.58-10.08,21.3-9.34,2.5.68,3.9,4.42,1.71,6.35-21.45,12.98-42.95,26.04-63.3,40.69-13.92,10.02-33.87,20.92-33.72,40.27.13,16.48,3.83,58.24,10.55,72.52,9.57,20.33,32.5,27.53,53.49,22.53,23.34-5.56.52-12.86-4.19-25.82-3.89-10.7-3.8-41.15-2.85-53.22,1.52-19.4,24.97-35.53,40.12-45.88,6.43-4.39,39.72-25.24,45.19-24.41,4.54.69,5.84,5.54,2.24,8.85-6,5.5-22.17,12.81-30.04,17.95-8.97,5.85-17.82,12.06-25.95,19.05s-17.3,13.51-18.51,25.49c-1.06,10.5-.17,32.24.98,42.99.83,7.75,7.56,14.92,13.53,19.47,7.36,5.6,21.7,4.66,31.02,4.07,16.4-1.05,40.84-6.59,31.66-28.74-5.05-12.17-22.67-12.21-24.75-15.26-1.56-2.28,1.71-9.82.56-13.04,7.41,3.48,12.15,3.56,20.02,1.52,4.6-1.2,20.19-9.1,16.82,2.76-.89,3.12-7.96,5.84-7.95,10.22,0,2.49,6.04,9.34,6.87,14.24,4.78,28.15-20.64,39.44-44.28,41.25-7.82.6-17.24-1.02-24.75.25-5.36.9-12.87,6.27-18.78,8.22-17.45,5.77-35.54,5.14-50.44-6.48-8.69-6.78-13.31-18.46-23.82-22.18s-24.67-1.66-35.93-4.07c-33.15-7.1-42.22-36.39-68.86-52.14-16.8-9.94-33.3-12.6-52.43-14.57-8.09-.83-14.19,1.39-20.49-6.01,23.18-12.88,67.57,3.77,87.89,18.61,14.64,10.69,24.79,25.88,40.62,34.37-3.09-7.49-4.53-15.25-6.51-22.98Z"/>
  <path class="cls-1" d="M349.06,468.36c-3.9-.62-12.88-7.83-18.98-9.52-9.96-2.75-23.27-2.76-34.05-4.95-41.58-8.41-77.53-31.07-105.48-62.52-13.14-14.78-22.53-32.59-35.51-47.49-20.8-23.86-47.47-35.15-71.89-54.11-12.34-9.58-26.1-19.13-26.09-36.41,7.91.59,9.24,8.03,13.49,13.01,12.16,14.26,47.83,33.08,64.83,45.17,28.97,20.61,30.54,32.49,48.27,60.73,27.35,43.57,62.59,64.82,113.93,71.07,17.58,2.14,36.39,1.38,53.85,4.15,8.25,1.31,19.14,3.57,17.6,14.29-1.13,7.81-13.87,7.55-19.96,6.58Z"/>
  <path class="cls-1" d="M70.06,197.36c5.21-7.98,11.06-3.74,17.61-3.11,41.3,3.98,78.29-35.54,121.41-25.29l67.56-41.61c5.67-.82,8.83,4.61,3.91,7.99-23.62,16.17-47.81,31.52-71.58,47.45-.95.64-2.59.35-2.9.56-3.12-2.87-7.38-4.41-11.61-4.89-19.78-2.27-41.05,10.4-59.63,16.16-18.62,5.76-46.88,12.08-64.76,2.74Z"/>
  <path class="cls-1" d="M492.06,388.36c-4.4-14.24-13.79-26.65-18.76-40.74-8.42-23.82-9.53-74.12-10.28-100.72-.28-9.9-2.18-26.12,4.04-33.54,2.95,35.6,4.2,74.95,9.12,110.38,2.68,19.3,11.58,35.45,20.65,52.35,1.5,7.23-1.69,8.01-4.78,12.27Z"/>
</svg>