<svg width="295" height="295" viewBox="0 0 295 295" fill="none" xmlns="http://www.w3.org/2000/svg">
<path d="M91.2666 84.1571L105.274 91.1711V112.192L119.302 105.178V84.1571L105.274 77.1641L91.2666 84.1571Z" fill="#ED6630"/>
<path d="M105.274 126.199V210.283L119.302 203.269V119.206L105.274 112.192L91.2666 119.206L105.274 126.199Z" fill="#ED6630"/>
<path d="M154.33 210.283L168.337 203.269V119.206L154.33 112.192L140.302 119.206L154.33 126.199V210.283Z" fill="#ED6630"/>
<path d="M77.2596 105.178L91.2666 98.1852V84.1572L77.2596 91.1712V105.178Z" fill="#ED6630"/>
<path d="M189.358 189.262L175.33 196.255V210.283L189.358 217.276L203.365 210.283L189.358 203.269V189.262Z" fill="#ED6630"/>
<path d="M126.295 210.283L140.302 217.276L154.33 210.283L140.302 203.269V119.206V84.1572L126.295 91.1712V210.283Z" fill="#ED6630"/>
<path d="M91.2666 126.198L77.2596 133.212V210.282L91.2666 217.275L105.274 210.282L91.2666 203.268V126.198Z" fill="#ED6630"/>
<path d="M140.302 84.1571L154.33 91.1711V105.178L168.337 98.1851V84.1571L154.33 77.1641L140.302 84.1571Z" fill="#ED6630"/>
<path d="M189.358 84.1572L175.33 91.1712V175.234L189.358 182.248L203.365 175.234L189.358 168.241V84.1572Z" fill="#ED6630"/>
<path d="M203.365 77.1641L189.358 84.1571L203.365 91.1711V112.192V175.234V210.283L217.372 203.269V105.178V84.1571L203.365 77.1641Z" fill="#ED6630"/>
<path d="M33.9645 123.643L29.4285 119.842L32.4525 109.132L38.3115 108.292L38.9835 105.898L16.6395 109.258L16.0515 111.337L33.3135 125.911L33.9645 123.643ZM18.9495 111.085L30.2475 109.468L27.7065 118.435L18.9495 111.085Z" fill="#6B6B6B"/>
<path d="M41.5035 100.628L26.5725 92.9843L47.5095 88.8683L48.3495 87.2302L30.1635 77.9062L29.1345 79.9222L43.7295 87.3772L23.2755 91.3672L22.2885 93.2992L40.4745 102.623L41.5035 100.628Z" fill="#6B6B6B"/>
<path d="M40.1805 67.2575L54.7335 78.3875L56.1405 76.5394L41.5875 65.4305L45.7665 59.9705L44.0655 58.6895L34.3215 71.4155L36.0225 72.7174L40.1805 67.2575Z" fill="#6B6B6B"/>
<path d="M54.4816 62.0915C55.4476 63.1415 56.5396 63.9605 57.7786 64.5695C58.9966 65.1785 60.2775 65.5145 61.6005 65.5985C62.9235 65.6825 64.2466 65.5145 65.5696 65.0525C66.8926 64.6115 68.1316 63.8555 69.2656 62.8055C70.4206 61.7555 71.2606 60.5795 71.8276 59.2775C72.3946 57.9755 72.6676 56.6735 72.6886 55.3295C72.7096 53.9855 72.4576 52.6835 71.9746 51.4025C71.4916 50.1215 70.7566 48.9665 69.7906 47.9165C68.8246 46.8665 67.7326 46.0475 66.4936 45.4385C65.2756 44.8295 63.9945 44.4935 62.6505 44.4095C61.3275 44.3255 60.0046 44.4935 58.6816 44.9555C57.3586 45.3965 56.1196 46.1525 54.9856 47.2025C53.8516 48.2525 52.9906 49.4285 52.4236 50.7305C51.8776 52.0325 51.5836 53.3345 51.5626 54.6785C51.5416 56.0225 51.7936 57.3245 52.2766 58.6055C52.8016 59.8865 53.5366 61.0415 54.4816 62.0915ZM54.4816 51.4865C54.9016 50.4995 55.5526 49.6175 56.4136 48.8195C57.2746 48.0215 58.2196 47.4545 59.2486 47.1185C60.2776 46.7825 61.3066 46.6565 62.3566 46.7195C63.4066 46.7825 64.4146 47.0765 65.4016 47.5595C66.3886 48.0425 67.2916 48.7145 68.0686 49.5755C68.8666 50.4365 69.4545 51.3815 69.8535 52.3895C70.2525 53.4185 70.4415 54.4475 70.4415 55.4765C70.4415 56.5055 70.2316 57.5135 69.7906 58.5005C69.3706 59.4875 68.7195 60.3695 67.8585 61.1675C66.9975 61.9655 66.0526 62.5325 65.0236 62.8685C63.9946 63.2045 62.9656 63.3305 61.9156 63.2675C60.8656 63.2045 59.8576 62.9105 58.8706 62.4275C57.8836 61.9445 56.9806 61.2725 56.2036 60.4115C55.4056 59.5505 54.8176 58.6055 54.4186 57.5975C54.0196 56.5685 53.8306 55.5395 53.8306 54.5105C53.8306 53.4815 54.0406 52.4735 54.4816 51.4865Z" fill="#6B6B6B"/>
<path d="M82.3065 51.804L73.6545 37.44L93.6045 45L95.1795 44.055L84.6375 26.541L82.7055 27.696L91.1685 41.724L71.6805 34.332L69.8326 35.445L80.3746 52.959L82.3065 51.804Z" fill="#6B6B6B"/>
<path d="M114.143 36.5577L113.408 34.5837L101.606 39.0357L99.0855 32.3367L109.523 28.4097L108.788 26.4358L98.3505 30.3628L95.8935 23.8318L107.57 19.4428L106.835 17.4688L92.9955 22.6768L100.178 41.8077L114.143 36.5577Z" fill="#6B6B6B"/>
<path d="M132.119 32.7777L131.699 30.6987L120.422 32.9247L116.852 14.9697L114.584 15.4107L118.574 35.4657L132.119 32.7777Z" fill="#6B6B6B"/>
<path d="M150.116 31.8538L150.032 29.7328L138.545 30.1948L137.81 11.8828L135.5 11.9878L136.319 32.3998L150.116 31.8538Z" fill="#6B6B6B"/>
<path d="M155.387 29.3116C156.164 30.3826 157.151 31.2856 158.348 32.0206C159.545 32.7556 160.91 33.2176 162.443 33.4276C163.997 33.6376 165.425 33.5326 166.79 33.1336C168.134 32.7346 169.331 32.1046 170.36 31.2646C171.389 30.4246 172.25 29.3956 172.922 28.1986C173.594 27.0016 174.014 25.6996 174.203 24.2926C174.392 22.8856 174.329 21.5206 173.993 20.1766C173.678 18.8536 173.111 17.6356 172.334 16.5646C171.557 15.4936 170.57 14.5906 169.373 13.8556C168.176 13.1206 166.811 12.6586 165.278 12.4486C163.724 12.2386 162.296 12.3436 160.931 12.7426C159.587 13.1416 158.39 13.7716 157.361 14.6116C156.332 15.4516 155.471 16.4806 154.799 17.6776C154.127 18.8746 153.707 20.1766 153.518 21.5836C153.329 22.9906 153.392 24.3556 153.728 25.6996C154.064 27.0436 154.61 28.2406 155.387 29.3116ZM155.912 21.8566C156.059 20.7016 156.416 19.6306 156.941 18.6856C157.466 17.7196 158.138 16.9216 158.936 16.2496C159.734 15.5986 160.637 15.1156 161.666 14.8006C162.695 14.4856 163.787 14.4226 164.942 14.5696C166.097 14.7166 167.147 15.0946 168.05 15.6616C168.974 16.2496 169.73 16.9426 170.36 17.8036C170.969 18.6436 171.41 19.6096 171.662 20.6806C171.914 21.7516 171.977 22.8646 171.83 24.0406C171.683 25.1956 171.326 26.2666 170.801 27.2116C170.276 28.1776 169.604 28.9756 168.806 29.6476C168.008 30.2986 167.105 30.7816 166.076 31.0966C165.047 31.3906 163.955 31.4746 162.8 31.3276C161.645 31.1806 160.595 30.8026 159.692 30.2356C158.768 29.6686 158.012 28.9546 157.403 28.1146C156.794 27.2746 156.353 26.3086 156.101 25.2376C155.807 24.1456 155.744 23.0116 155.912 21.8566Z" fill="#6B6B6B"/>
<path d="M201.062 45.7344C201.965 46.1964 202.847 46.5114 203.729 46.6794C204.611 46.8264 205.451 46.8264 206.228 46.6584C207.005 46.4904 207.719 46.1754 208.349 45.6924C209 45.2094 209.504 44.5794 209.924 43.8024C210.659 42.3954 210.743 41.0514 210.218 39.7704C209.672 38.4684 208.517 37.0824 206.732 35.5704C205.85 34.8354 205.136 34.1844 204.632 33.6174C204.107 33.0504 203.75 32.5254 203.54 32.0634C203.33 31.5804 203.246 31.1394 203.288 30.7194C203.33 30.2994 203.477 29.8794 203.687 29.4384C203.897 29.0184 204.191 28.6824 204.569 28.4094C204.947 28.1364 205.367 27.9684 205.829 27.8844C206.291 27.8004 206.816 27.8004 207.362 27.9054C207.908 27.9894 208.496 28.1994 209.063 28.5144C209.987 28.9974 210.806 29.6274 211.499 30.3834C212.192 31.1394 212.78 32.0844 213.263 33.2184L215.279 32.2734C214.733 31.0554 214.061 30.0054 213.263 29.1024C212.465 28.2204 211.394 27.4224 210.071 26.7294C209.21 26.2674 208.349 25.9944 207.488 25.8474C206.627 25.7214 205.829 25.7424 205.052 25.8894C204.296 26.0574 203.603 26.3514 202.994 26.8134C202.385 27.2544 201.881 27.8424 201.503 28.5774C201.104 29.3334 200.873 30.0474 200.831 30.7404C200.789 31.4124 200.894 32.1054 201.188 32.7774C201.461 33.4494 201.923 34.1424 202.532 34.8354C203.141 35.5284 203.918 36.2634 204.842 37.0404C205.682 37.7544 206.354 38.3634 206.858 38.9094C207.362 39.4554 207.698 39.9594 207.908 40.4214C208.118 40.8834 208.181 41.3034 208.16 41.7234C208.118 42.1434 207.992 42.5634 207.761 42.9834C207.278 43.9074 206.522 44.4744 205.472 44.6634C204.443 44.8524 203.309 44.6214 202.091 43.9704C200.831 43.3194 199.823 42.5214 199.088 41.5764C198.353 40.6524 197.723 39.4974 197.219 38.1534L195.161 38.9934C195.728 40.5474 196.505 41.8704 197.45 42.9624C198.416 44.0334 199.613 44.9784 201.062 45.7344Z" fill="#6B6B6B"/>
<path d="M215.174 54.2172L217.022 55.6032L227.963 40.9242L233.465 45.0402L234.746 43.3392L221.894 33.7422L220.613 35.4432L226.115 39.5592L215.174 54.2172Z" fill="#6B6B6B"/>
<path d="M229.265 59.4464C228.74 60.4964 228.446 61.5674 228.425 62.6174C228.383 63.6674 228.593 64.7174 229.034 65.7254C229.475 66.7544 230.126 67.7204 230.987 68.6444C231.869 69.5894 232.793 70.3034 233.801 70.7864C234.788 71.2904 235.817 71.5424 236.888 71.5844C237.959 71.6054 239.03 71.3954 240.143 70.9124C241.235 70.4294 242.348 69.6944 243.44 68.6654L251.966 60.6434L250.391 58.9634L241.739 67.1114C240.101 68.6444 238.505 69.4004 236.909 69.3584C235.334 69.3164 233.885 68.6234 232.604 67.2374C231.26 65.8094 230.63 64.2764 230.756 62.6594C230.861 61.0424 231.722 59.4674 233.339 57.9554L241.886 49.9124L240.311 48.2324L231.659 56.3804C230.588 57.3674 229.811 58.3754 229.265 59.4464Z" fill="#6B6B6B"/>
<path d="M243.965 84.6472C244.826 85.9912 245.813 87.1042 246.989 87.9442C248.144 88.7842 249.362 89.3722 250.664 89.7082C251.945 90.0232 253.268 90.0862 254.612 89.8552C255.956 89.6242 257.237 89.1202 258.455 88.3642C259.673 87.5872 260.66 86.6632 261.437 85.5502C262.214 84.4372 262.718 83.2402 262.991 81.9382C263.243 80.6362 263.243 79.2712 262.97 77.8852C262.697 76.4782 262.13 75.1132 261.269 73.7482L257.468 67.7422L240.185 78.6622L243.965 84.6472ZM259.442 74.8612C260.135 75.9532 260.576 77.0452 260.786 78.1582C260.996 79.2712 260.975 80.3212 260.765 81.3292C260.534 82.3372 260.114 83.2822 259.484 84.1432C258.854 85.0042 258.077 85.7392 257.111 86.3482C256.145 86.9572 255.137 87.3562 254.108 87.5452C253.079 87.7342 252.05 87.7132 251.042 87.4822C250.034 87.2512 249.068 86.8102 248.165 86.1382C247.262 85.4662 246.464 84.5842 245.771 83.5132L243.209 79.4602L256.88 70.8082L259.442 74.8612Z" fill="#6B6B6B"/>
<path d="M270.377 90.2754L251.775 98.7285L252.731 100.832L271.333 92.3784L270.377 90.2754Z" fill="#6B6B6B"/>
<path d="M278.006 109.679C277.565 108.188 276.893 106.907 275.99 105.815C275.087 104.744 274.037 103.904 272.84 103.295C271.643 102.686 270.383 102.308 269.018 102.182C267.653 102.056 266.288 102.182 264.923 102.581C263.558 102.98 262.34 103.589 261.248 104.408C260.156 105.248 259.274 106.235 258.602 107.369C257.93 108.524 257.489 109.784 257.3 111.17C257.111 112.556 257.237 113.984 257.657 115.496C258.098 116.987 258.77 118.268 259.673 119.36C260.576 120.431 261.626 121.271 262.823 121.88C264.02 122.489 265.28 122.867 266.645 122.993C268.01 123.119 269.375 122.993 270.74 122.594C272.105 122.195 273.323 121.586 274.415 120.767C275.507 119.927 276.389 118.94 277.061 117.806C277.733 116.651 278.174 115.391 278.363 114.005C278.573 112.619 278.447 111.17 278.006 109.679ZM276.2 113.501C276.032 114.572 275.696 115.559 275.171 116.462C274.646 117.365 273.932 118.142 273.05 118.814C272.168 119.486 271.16 119.969 270.047 120.305C268.913 120.62 267.821 120.746 266.729 120.641C265.637 120.536 264.629 120.263 263.705 119.801C262.781 119.339 261.983 118.688 261.269 117.869C260.576 117.05 260.072 116.063 259.736 114.95C259.421 113.837 259.337 112.724 259.484 111.674C259.652 110.603 259.988 109.616 260.513 108.713C261.038 107.81 261.752 107.033 262.634 106.361C263.516 105.689 264.524 105.206 265.637 104.87C266.75 104.555 267.863 104.429 268.955 104.534C270.047 104.639 271.055 104.912 271.979 105.374C272.903 105.836 273.701 106.487 274.415 107.306C275.108 108.125 275.612 109.112 275.948 110.225C276.284 111.338 276.347 112.43 276.2 113.501Z" fill="#6B6B6B"/>
<path d="M39.0466 213.083C39.8866 213.461 40.7896 213.629 41.7136 213.608C42.6586 213.587 43.6036 213.314 44.5906 212.768C45.4726 212.285 46.1866 211.697 46.7326 210.983C47.2786 210.269 47.6146 209.492 47.7826 208.652C47.9506 207.791 47.9296 206.888 47.7406 205.901C47.5516 204.935 47.1946 203.927 46.6276 202.919L42.9736 196.199L25.0186 205.985L26.1316 208.001L32.4736 204.557L34.8466 208.925C35.3716 209.891 35.9806 210.731 36.6946 211.445C37.4086 212.159 38.1856 212.705 39.0466 213.083ZM34.3216 203.57L42.2176 199.265L44.6956 203.822C45.4936 205.271 45.8086 206.636 45.6196 207.875C45.4306 209.114 44.6956 210.08 43.4146 210.794C42.8056 211.109 42.2176 211.298 41.5876 211.34C40.9786 211.382 40.3696 211.277 39.7816 211.025C39.1936 210.773 38.6476 210.395 38.1226 209.891C37.5976 209.387 37.1356 208.757 36.7366 208.022L34.3216 203.57Z" fill="#6B6B6B"/>
<path d="M55.7625 230.45C56.4555 230.24 57.1485 229.883 57.8205 229.337C58.5345 228.77 59.0805 228.119 59.4585 227.363C59.8365 226.628 60.0255 225.83 60.0465 224.99C60.0675 224.15 59.8995 223.289 59.5635 222.407C59.2275 221.525 58.7025 220.622 58.0095 219.74L52.5285 212.873L36.5266 225.599L37.9546 227.405L44.1705 222.449L47.8035 227.027L45.2836 236.603L47.0476 238.829L49.6726 228.728C50.2816 229.274 50.9116 229.694 51.6046 230.03C52.2976 230.366 52.9695 230.555 53.6835 230.639C54.3765 230.702 55.0695 230.639 55.7625 230.45ZM51.2476 227.573C50.7016 227.195 50.1765 226.712 49.7145 226.103L45.7875 221.189L52.2976 216.002L56.2455 220.958C57.2745 222.26 57.7995 223.478 57.8205 224.654C57.8415 225.809 57.3375 226.796 56.3295 227.594C55.8046 228.014 55.2585 228.287 54.6915 228.392C54.1035 228.518 53.5365 228.497 52.9695 228.371C52.3605 228.224 51.7936 227.951 51.2476 227.573Z" fill="#6B6B6B"/>
<path d="M66.5015 229.127L52.2924 243.811L53.9523 245.417L68.1614 230.734L66.5015 229.127Z" fill="#6B6B6B"/>
<path d="M84.9105 244.185L68.5725 253.992L73.1925 235.512L71.1135 233.979L65.9475 255.777L67.6065 256.995L86.9055 245.655L84.9105 244.185Z" fill="#6B6B6B"/>
<path d="M76.8676 263.462L78.9886 264.533L83.5876 260.816L93.5206 265.835L93.2266 271.736L95.4316 272.849L96.4186 250.274L94.4866 249.287L76.8676 263.462ZM93.6256 263.588L85.3096 259.388L94.1926 252.206L93.6256 263.588Z" fill="#6B6B6B"/>
<path d="M103.916 256.406L110.468 258.485L104.882 275.936L107.087 276.629L112.652 259.199L119.204 261.278L119.834 259.241L104.567 254.369L103.916 256.406Z" fill="#6B6B6B"/>
<path d="M121.01 280.326L135.773 282.447L136.067 280.347L123.593 278.562L124.601 271.485L135.647 273.06L135.941 270.981L124.895 269.406L125.882 262.497L138.23 264.261L138.524 262.182L123.908 260.082L121.01 280.326Z" fill="#6B6B6B"/>
<path d="M167.462 279.065L164.186 261.047L161.918 261.467L165.593 281.564L179.18 279.086L178.781 276.986L167.462 279.065Z" fill="#6B6B6B"/>
<path d="M182.147 256.805L179.94 257.486L185.963 277.01L188.171 276.329L182.147 256.805Z" fill="#6B6B6B"/>
<path d="M203.477 247.776L201.587 261.048L190.058 254.223L187.937 255.231L196.799 273.669L198.815 272.682L191.675 257.793L203.099 264.408L203.204 264.366L205.178 251.262L212.36 266.193L214.439 265.185L205.577 246.768L203.477 247.776Z" fill="#6B6B6B"/>
<path d="M212.352 241.962L210.439 243.256L221.885 260.183L223.799 258.888L212.352 241.962Z" fill="#6B6B6B"/>
<path d="M229.853 230.492L228.446 228.875L216.35 239.396L217.757 241.013L222.923 236.498L234.935 250.316L236.678 248.804L224.666 234.986L229.853 230.492Z" fill="#6B6B6B"/>
<path d="M246.884 235.763L241.382 231.206L248.48 222.596L246.863 221.273L239.744 229.862L234.368 225.41L242.327 215.813L240.71 214.469L231.281 225.851L247.031 238.871L256.544 227.384L254.927 226.04L246.884 235.763Z" fill="#6B6B6B"/>
<path d="M264.061 202.834C263.221 201.763 262.171 200.881 260.911 200.167C259.651 199.453 258.349 199.033 257.005 198.886C255.661 198.739 254.359 198.865 253.078 199.243C251.818 199.642 250.621 200.293 249.529 201.196C248.437 202.099 247.492 203.254 246.715 204.661L243.25 210.856L261.079 220.852L264.544 214.657C265.321 213.271 265.804 211.864 265.993 210.436C266.182 209.008 266.119 207.664 265.783 206.383C265.489 205.081 264.901 203.905 264.061 202.834ZM263.872 210.247C263.704 211.36 263.326 212.473 262.696 213.607L260.365 217.786L246.253 209.89L248.584 205.711C249.214 204.598 249.97 203.674 250.852 202.96C251.734 202.246 252.658 201.742 253.666 201.469C254.653 201.196 255.682 201.112 256.753 201.259C257.824 201.406 258.832 201.742 259.819 202.288C260.827 202.855 261.646 203.548 262.297 204.367C262.948 205.186 263.41 206.11 263.704 207.097C263.956 208.084 264.019 209.134 263.872 210.247Z" fill="#6B6B6B"/>
<path d="M238.883 200.273C238.925 200.231 238.988 200.189 239.03 200.147C239.072 200.063 239.093 199.979 239.114 199.895C248.081 184.355 253.226 166.358 253.226 147.164C253.226 127.97 248.081 109.973 239.114 94.4328C239.093 94.3488 239.072 94.2648 239.03 94.1808C238.988 94.0968 238.925 94.0548 238.862 93.9918C220.466 62.4708 186.32 41.2188 147.26 41.2188C108.2 41.2188 74.0536 62.4708 55.6786 93.9918C55.6156 94.0548 55.5526 94.0968 55.5106 94.1808C55.4686 94.2648 55.4476 94.3488 55.4266 94.4328C46.4596 109.973 41.3146 127.97 41.3146 147.164C41.3146 166.358 46.4596 184.355 55.4266 199.895C55.4476 199.979 55.4686 200.063 55.5106 200.147C55.5526 200.21 55.5946 200.231 55.6576 200.273C74.0326 231.836 108.2 253.109 147.281 253.109C186.341 253.109 220.508 231.836 238.883 200.273ZM237.686 198.173L225.905 191.369L200.369 147.164L225.884 102.959L237.665 96.1548C246.212 111.233 251.105 128.621 251.105 147.164C251.105 165.707 246.233 183.095 237.686 198.173ZM147.26 235.007L123.11 193.175H171.41L147.26 235.007ZM121.913 191.075L96.5446 147.164L121.892 103.253H172.607L197.975 147.164L172.607 191.075H121.913ZM119.498 191.075H71.1976L95.3476 149.243L119.498 191.075ZM95.3476 145.085L71.1976 103.253H119.498L95.3476 145.085ZM147.26 59.3208L171.41 101.153H123.11L147.26 59.3208ZM175.022 103.253H223.322L199.172 145.085L175.022 103.253ZM199.172 149.243L223.322 191.075H175.022L199.172 149.243ZM236.636 94.3488L224.855 101.153H173.825L148.31 56.9688V43.3398C185.858 43.6968 218.702 64.1088 236.636 94.3488ZM146.21 43.3188V56.9478L120.695 101.153H69.6646L57.8836 94.3488C75.8176 64.1088 108.662 43.6968 146.21 43.3188ZM56.8336 96.1548L68.6146 102.959L94.1506 147.164L68.6146 191.369L56.8336 198.173C48.2866 183.095 43.3936 165.707 43.3936 147.164C43.3936 128.621 48.2866 111.233 56.8336 96.1548ZM57.8836 199.979L69.6646 193.175H120.695L146.21 237.38V251.009C108.662 250.631 75.8176 230.219 57.8836 199.979ZM148.31 251.009V237.38L173.825 193.175H224.855L236.636 199.979C218.702 230.219 185.858 250.631 148.31 251.009Z" fill="#6B6B6B"/>
<path d="M147.26 0.164062C66.1996 0.164062 0.259552 66.1041 0.259552 147.164C0.259552 228.224 66.1996 294.164 147.26 294.164C228.32 294.164 294.26 228.224 294.26 147.164C294.26 66.1041 228.32 0.164062 147.26 0.164062ZM147.26 292.085C67.3546 292.085 2.33855 227.069 2.33855 147.164C2.33855 67.2591 67.3546 2.24306 147.26 2.24306C227.165 2.24306 292.181 67.2591 292.181 147.164C292.181 227.069 227.165 292.085 147.26 292.085Z" fill="#6B6B6B"/>
</svg>
