<svg width="90" height="17" viewBox="0 0 90 17" fill="none" xmlns="http://www.w3.org/2000/svg">
<path d="M27.2652 4.7902C28.0305 5.42352 28.4138 6.47212 28.4138 7.93876V15.8136H25.2819V8.70125C25.2819 8.08598 25.2 7.61377 25.0375 7.28461C24.7388 6.68323 24.1708 6.38323 23.3333 6.38323C22.3042 6.38323 21.5972 6.8235 21.2139 7.70265C21.0153 8.16792 20.9153 8.76097 20.9153 9.48318V15.8122H17.8584V4.1416H20.8195V5.84713C21.2111 5.24575 21.582 4.81381 21.9306 4.54854C22.5569 4.07632 23.3514 3.84022 24.3125 3.84022C25.5152 3.84022 26.4999 4.15688 27.2666 4.7902H27.2652Z" fill="#F3F3F3"/>
<path d="M29.1659 6.40409V4.22635H30.1034V0.965286H33.1283V4.22635H35.0269V6.40409H33.1283V12.5832C33.1283 13.0623 33.1894 13.3609 33.3102 13.479C33.4325 13.5956 33.8033 13.6554 34.4255 13.6554C34.5186 13.6554 34.6172 13.654 34.7199 13.6498C34.8227 13.6456 34.9255 13.6401 35.0255 13.6331V15.9178L33.5769 15.972C32.1325 16.022 31.145 15.772 30.6158 15.2206C30.2728 14.8706 30.1006 14.3304 30.1006 13.6012V6.4027H29.1631L29.1659 6.40409Z" fill="#F3F3F3"/>
<path d="M56.6772 4.7902C57.4424 5.42352 57.8244 6.47212 57.8244 7.93876V15.8136H54.6925V8.70125C54.6925 8.08598 54.6105 7.61377 54.4466 7.28461C54.1494 6.68323 53.5814 6.38323 52.7425 6.38323C51.712 6.38323 51.0064 6.8235 50.6231 7.70265C50.4245 8.16792 50.3245 8.76097 50.3245 9.48318V15.8122H47.2676V4.1416H50.2286V5.84713C50.6203 5.24575 50.9897 4.81381 51.3397 4.54854C51.9661 4.07632 52.7605 3.84022 53.723 3.84022C54.9258 3.84022 55.9105 4.15688 56.6772 4.7902Z" fill="#F3F3F3"/>
<path d="M66.9091 4.35687C67.7258 4.72214 68.3994 5.29852 68.9299 6.0874C69.4091 6.78183 69.7188 7.58737 69.8619 8.50541C69.9438 9.0429 69.9771 9.8165 69.9633 10.8262H61.7287C61.5773 10.8262 61.4523 10.9609 61.4662 11.1123C61.5648 12.1345 61.9662 12.8609 62.6703 13.2942C63.137 13.5873 63.6981 13.7345 64.355 13.7345C65.0522 13.7345 65.6175 13.5553 66.0522 13.1984C66.2897 13.0053 66.4994 12.7373 66.6814 12.3942H69.8021C69.7202 13.0873 69.3424 13.7928 68.6688 14.5081C67.6216 15.6456 66.1536 16.2136 64.2689 16.2136C62.712 16.2136 61.3398 15.7331 60.1509 14.7748C58.9606 13.8151 58.3662 12.2554 58.3662 10.0943C58.3662 8.06792 58.9037 6.51517 59.9773 5.43463C61.0509 4.35409 62.4453 3.81382 64.1592 3.81382C65.1758 3.81382 66.0925 3.99715 66.9077 4.36103L66.9091 4.35687ZM62.337 6.9971C61.9689 7.37626 61.7175 7.86792 61.5828 8.47625C61.5453 8.64569 61.6828 8.80819 61.8564 8.80819L62.0245 8.74569C63.4703 8.20681 65.0675 8.22903 66.498 8.80819C66.6536 8.80819 66.7814 8.66652 66.7591 8.51236C66.6633 7.8457 66.4022 7.32765 65.9744 6.96099C65.4869 6.54017 64.8828 6.33045 64.162 6.33045C63.3772 6.33045 62.7689 6.55267 62.337 6.99849V6.9971Z" fill="#F3F3F3"/>
<path d="M73.5637 15.8123H70.5068V0H73.5637V15.8123Z" fill="#F3F3F3"/>
<path d="M77.3679 15.8123H74.3096V0H77.3679V15.8123Z" fill="#F3F3F3"/>
<path d="M45.1519 5.6041C44.1644 4.36801 42.6672 3.74996 40.6575 3.74996C38.6478 3.74996 37.1492 4.36801 36.1632 5.6041C35.1757 6.84019 34.6826 8.30128 34.6826 9.98875C34.6826 11.6762 35.1757 13.1693 36.1632 14.3887C37.1506 15.6067 38.6478 16.2164 40.6575 16.2164C42.6672 16.2164 44.1658 15.6067 45.1519 14.3887C46.1394 13.1706 46.6324 11.704 46.6324 9.98875C46.6324 8.2735 46.1394 6.84019 45.1519 5.6041ZM43.463 10.1707L44.3755 11.7526C44.5214 12.004 44.3394 12.3179 44.0491 12.3179H42.2228C42.0881 12.3179 41.9631 12.3901 41.8964 12.5068L40.9839 14.0887C40.8381 14.3401 40.4756 14.3401 40.3311 14.0887L39.4173 12.5068C39.3506 12.3901 39.2256 12.3179 39.0909 12.3179H37.2645C36.9742 12.3179 36.7923 12.004 36.9381 11.7526L37.8506 10.1707C37.9187 10.054 37.9187 9.90959 37.8506 9.79292L36.9381 8.211C36.7923 7.95962 36.9742 7.64573 37.2645 7.64573H39.0909C39.2256 7.64573 39.3506 7.57351 39.4173 7.45685L40.3311 5.87493C40.4756 5.62354 40.8395 5.62354 40.9839 5.87493L41.8964 7.45685C41.9645 7.57351 42.0881 7.64573 42.2228 7.64573H44.0491C44.3394 7.64573 44.5214 7.95962 44.3755 8.211L43.463 9.79292C43.395 9.90959 43.395 10.054 43.463 10.1707Z" fill="#F3F3F3"/>
<path d="M15.447 11.354L13.354 5.43603L11.4304 0H5.64575L3.71939 5.39575L2.99023 7.43738L2.87357 7.76377L1.58053 11.3859L0 15.8123H17.0234L15.4456 11.354H15.447ZM10.079 11.979C9.94429 11.979 9.8193 12.0512 9.75263 12.1679L8.84014 13.7498C8.69431 14.0012 8.33182 14.0012 8.18738 13.7498L7.2735 12.1679C7.20684 12.0512 7.08184 11.979 6.94712 11.979H5.12076C4.83048 11.979 4.64854 11.6651 4.79437 11.4137L5.70686 9.83179C5.77491 9.71513 5.77491 9.57068 5.70686 9.45402L4.79437 7.8721C4.64854 7.62071 4.83048 7.30683 5.12076 7.30683H6.94712C7.08184 7.30683 7.20684 7.23461 7.2735 7.11794L8.18738 5.53602C8.33182 5.28464 8.6957 5.28464 8.84014 5.53602L9.75263 7.11794C9.82068 7.23461 9.94429 7.30683 10.079 7.30683H11.9054C12.1956 7.30683 12.3776 7.62071 12.2318 7.8721L11.3193 9.45402C11.2512 9.57068 11.2512 9.71513 11.3193 9.83179L12.2318 11.4137C12.3776 11.6651 12.1956 11.979 11.9054 11.979H10.079Z" fill="#F3F3F3"/>
<path d="M88.5191 5.6041C87.5316 4.36801 86.0344 3.74996 84.0247 3.74996C82.015 3.74996 80.5164 4.36801 79.5303 5.6041C78.5428 6.84019 78.0498 8.30128 78.0498 9.98875C78.0498 11.6762 78.5428 13.1693 79.5303 14.3887C80.5178 15.6067 82.015 16.2164 84.0247 16.2164C86.0344 16.2164 87.533 15.6067 88.5191 14.3887C89.5066 13.1706 89.9996 11.704 89.9996 9.98875C89.9996 8.2735 89.5066 6.84019 88.5191 5.6041ZM86.8302 10.1707L87.7427 11.7526C87.8885 12.004 87.7066 12.3179 87.4163 12.3179H85.59C85.4552 12.3179 85.3302 12.3901 85.2636 12.5068L84.3511 14.0887C84.2053 14.3401 83.8428 14.3401 83.6983 14.0887L82.7844 12.5068C82.7178 12.3901 82.5928 12.3179 82.4581 12.3179H80.6317C80.3414 12.3179 80.1595 12.004 80.3053 11.7526L81.2178 10.1707C81.2859 10.054 81.2859 9.90959 81.2178 9.79292L80.3053 8.211C80.1595 7.95962 80.3414 7.64573 80.6317 7.64573H82.4581C82.5928 7.64573 82.7178 7.57351 82.7844 7.45685L83.6983 5.87493C83.8428 5.62354 84.2067 5.62354 84.3511 5.87493L85.2636 7.45685C85.3316 7.57351 85.4552 7.64573 85.59 7.64573H87.4163C87.7066 7.64573 87.8885 7.95962 87.7427 8.211L86.8302 9.79292C86.7622 9.90959 86.7622 10.054 86.8302 10.1707Z" fill="#F3F3F3"/>
</svg>
