<svg width="155" height="185" viewBox="0 0 155 185" fill="none" xmlns="http://www.w3.org/2000/svg">
<g clip-path="url(#clip0_414_32)">
<path d="M41.5046 30.1539L41.8411 113.088L113.496 154.846L113.159 71.9121L41.5046 30.1539Z" fill="#242424"/>
<path d="M78.2741 74.4422C76.3458 75.5554 75.0444 77.3272 74.4738 79.328C74.0268 79.1638 73.5854 78.9788 73.1608 78.7314C72.7362 78.4839 72.3512 78.2136 71.9906 77.894C74.4802 75.3131 75.088 71.3028 73.2063 68.0436C72.8635 67.4498 72.4415 66.9018 71.9894 66.4239C71.8299 66.2697 71.6705 66.1154 71.5186 65.9744C71.3566 66.1207 71.1945 66.2671 71.0401 66.4266C70.5768 66.9052 70.1648 67.4421 69.825 68.043C67.9357 71.2977 68.5439 75.3097 71.0336 77.8835C70.6831 78.1914 70.2833 78.475 69.8607 78.719C69.4381 78.963 69.0058 79.1598 68.5507 79.317C68.1709 77.9881 67.4624 76.761 66.4598 75.7565C64.9122 74.2045 62.8323 73.347 60.6329 73.3501C59.9426 73.344 59.2716 73.4323 58.6255 73.5942C58.4101 73.6482 58.2024 73.7153 57.9946 73.7825C58.0352 74.0053 58.0814 74.2074 58.1561 74.4282C58.3308 75.0662 58.5999 75.6849 58.9504 76.2919C60.832 79.551 64.609 81.0298 68.0889 80.1642C68.1778 80.6231 68.227 81.1049 68.229 81.5964C68.231 82.0878 68.1837 82.5549 68.0892 83.0317C66.092 82.5311 63.886 82.7667 61.9578 83.88C60.0296 84.9932 58.7149 86.7727 58.1575 88.7658C58.1016 88.974 58.0534 89.1954 57.9975 89.4036C58.2133 89.4725 58.4084 89.5358 58.6298 89.5839C59.2678 89.7434 59.9489 89.8251 60.6316 89.818C62.0935 89.8185 63.5122 89.4392 64.7404 88.7301C65.3612 88.3717 65.9362 87.9342 66.4579 87.4043C67.4637 86.4013 68.183 85.1767 68.5539 83.8366C70.2072 84.4127 71.6832 85.5662 72.6278 87.2024L80.8097 101.374L80.2899 103.31L82.2266 103.828L91.2312 119.424L91.3988 119.715L91.5664 120.005L96.8624 116.947L95.5445 114.665L94.2106 115.435L93.883 114.867L95.2169 114.097L93.3505 110.864L91.2638 112.069L90.8219 111.304L92.9086 110.099L91.5907 107.816L89.4776 109.036L85.4171 102.003L85.9369 100.067L84.0002 99.5492L75.8107 85.3647C74.8661 83.7285 74.6051 81.8736 74.9329 80.1537C76.2713 80.4894 77.6915 80.4787 79.0706 80.1223C79.7827 79.9223 80.4568 79.6563 81.0775 79.2979C82.319 78.5811 83.3436 77.5498 84.0741 76.2835C84.4139 75.6827 84.6705 75.0595 84.8646 74.4197C84.9205 74.2115 84.9688 73.9901 85.0246 73.7819C84.8088 73.713 84.6005 73.6573 84.3923 73.6016C82.3875 73.0877 80.2023 73.3289 78.2741 74.4422ZM65.9926 86.934C64.5612 88.3586 62.6619 89.1561 60.6327 89.1489C59.9972 89.1463 59.3786 89.0812 58.7747 88.9197C59.3005 87.0855 60.5004 85.4427 62.2701 84.421C64.0399 83.3992 66.0757 83.1738 67.9139 83.6432C67.5786 84.8924 66.9212 86.0108 65.9926 86.934ZM70.3918 68.3843C70.7073 67.8327 71.0873 67.3318 71.5185 66.8893C71.9477 67.3276 72.3261 67.8305 72.646 68.3847C74.3754 71.3799 73.8173 75.08 71.5198 77.4445C69.22 75.0777 68.6641 71.3698 70.3918 68.3843ZM59.5183 75.964C59.1983 75.4098 58.952 74.8307 58.7946 74.2531C59.3934 74.1008 60.0172 74.0222 60.6526 74.0248C62.6742 74.0188 64.58 74.8186 66.0173 76.2406C66.9402 77.1681 67.6085 78.2952 67.9483 79.5241C64.7309 80.3261 61.2476 78.9593 59.5183 75.964ZM88.9097 109.364L89.0773 109.655L89.2449 109.945L91.358 108.725L92.0131 109.86L89.9264 111.064L91.0234 112.964L93.1102 111.76L94.3138 113.844L92.9799 114.615L93.9703 116.33L95.3042 115.56L95.9593 116.695L91.7991 119.096L83.1297 104.081L84.7333 104.51L85.1636 102.906L88.8965 109.372L88.9097 109.364ZM85.1445 100.525L84.9656 101.191L84.7253 102.086L84.295 103.689L82.6914 103.261L81.796 103.021L81.1296 102.843L81.3084 102.177L81.5487 101.281L81.9791 99.6781L83.5826 100.107L84.4781 100.347L85.1445 100.525ZM75.2428 85.6926L83.0971 99.2965L81.4935 98.8677L81.0632 100.471L73.2166 86.88C72.1805 85.0855 70.5547 83.8251 68.7216 83.212C68.8196 82.6804 68.8761 82.1376 68.8776 81.5913C68.8792 81.045 68.8259 80.4952 68.7198 79.9759C69.2222 79.809 69.7205 79.5741 70.1959 79.2996C70.6714 79.0251 71.1164 78.6978 71.5197 78.3594C71.9164 78.711 72.3659 79.032 72.8397 79.3038C73.3136 79.5756 73.8119 79.7981 74.3214 79.979C73.9281 81.8598 74.2068 83.8981 75.2428 85.6926ZM83.5149 75.9554C82.4989 77.7032 80.8662 78.9624 78.9167 79.4898C77.6529 79.8324 76.348 79.8293 75.1138 79.5215C75.6396 77.6873 76.8395 76.0445 78.6093 75.0227C80.379 74.001 82.4016 73.7832 84.253 74.2449C84.0757 74.8223 83.8436 75.3962 83.5149 75.9554Z" fill="#5D5E5E"/>
<path d="M66.7677 66.8348L62.3112 65.6429L61.1151 70.0984L65.5717 71.2903L66.7677 66.8348ZM62.7759 66.4478L65.9621 67.3L65.107 70.4854L61.9208 69.6332L62.7759 66.4478Z" fill="#5D5E5E"/>
<path d="M80.9439 65.9514L76.4567 66.9939L77.4961 71.4782L81.9833 70.4358L80.9439 65.9514ZM77.9828 70.7047L77.2379 67.4929L80.4517 66.7458L81.1966 69.9575L77.9828 70.7047Z" fill="#5D5E5E"/>
<path d="M59.7941 81.5049L56.4811 78.2981L53.2701 81.6121L56.5832 84.819L59.7941 81.5049ZM56.4754 79.2338L58.8524 81.5208L56.5624 83.8985L54.1854 81.6115L56.4754 79.2338Z" fill="#5D5E5E"/>
<path d="M21.4262 57.1403C21.0564 57.3538 20.5983 57.2312 20.3849 56.8618L19.2422 54.8825C19.0289 54.5131 19.1519 54.055 19.5217 53.8415C19.8915 53.628 20.3496 53.7506 20.5629 54.12L21.7056 56.0993C21.919 56.4687 21.796 56.9267 21.4262 57.1403Z" fill="#242424"/>
<path d="M31.9391 75.3492C31.5693 75.5627 31.1112 75.4402 30.8979 75.0708L28.2696 70.5185C28.0563 70.1491 28.1793 69.691 28.5491 69.4775C28.9189 69.264 29.377 69.3865 29.5904 69.756L32.2186 74.3082C32.4319 74.6777 32.3089 75.1357 31.9391 75.3492ZM26.6827 66.2448C26.3129 66.4583 25.8547 66.3357 25.6414 65.9663L23.0132 61.414C22.7999 61.0446 22.9228 60.5865 23.2926 60.373C23.6624 60.1595 24.1206 60.2821 24.3339 60.6515L26.9621 65.2038C27.1754 65.5732 27.0525 66.0313 26.6827 66.2448Z" fill="#242424"/>
<path d="M35.7101 81.8807C35.3403 82.0942 34.8822 81.9717 34.6689 81.6022L33.5262 79.623C33.3129 79.2535 33.4358 78.7955 33.8056 78.582C34.1754 78.3685 34.6336 78.491 34.8469 78.8605L35.9896 80.8397C36.2029 81.2092 36.0799 81.6672 35.7101 81.8807Z" fill="#242424"/>
<path d="M20.0565 34.1802C19.6867 34.3937 19.2286 34.2711 19.0153 33.9017L17.8725 31.9224C17.6592 31.553 17.7822 31.0949 18.152 30.8814C18.5218 30.6679 18.9799 30.7905 19.1932 31.1599L20.336 33.1392C20.5493 33.5086 20.4263 33.9667 20.0565 34.1802Z" fill="#242424"/>
<path d="M30.5695 52.3892C30.1997 52.6027 29.7415 52.4801 29.5282 52.1107L26.9 47.5584C26.6867 47.189 26.8096 46.7309 27.1794 46.5174C27.5492 46.3039 28.0074 46.4265 28.2207 46.7959L30.8489 51.3482C31.0622 51.7176 30.9392 52.1757 30.5695 52.3892ZM25.313 43.2847C24.9432 43.4982 24.485 43.3756 24.2717 43.0062L21.6435 38.4539C21.4302 38.0845 21.5531 37.6264 21.9229 37.4129C22.2927 37.1994 22.7509 37.322 22.9642 37.6914L25.5924 42.2437C25.8057 42.6131 25.6828 43.0712 25.313 43.2847Z" fill="#242424"/>
<path d="M34.3404 58.9206C33.9707 59.1342 33.5125 59.0116 33.2992 58.6422L32.1565 56.6629C31.9432 56.2935 32.0661 55.8354 32.4359 55.6219C32.8057 55.4084 33.2639 55.531 33.4772 55.9004L34.6199 57.8796C34.8332 58.2491 34.7102 58.7071 34.3404 58.9206Z" fill="#242424"/>
<path d="M122.564 129.378C122.194 129.591 121.736 129.469 121.523 129.099L120.38 127.12C120.167 126.751 120.29 126.293 120.66 126.079C121.029 125.866 121.488 125.988 121.701 126.358L122.844 128.337C123.057 128.706 122.934 129.164 122.564 129.378Z" fill="#242424"/>
<path d="M133.077 147.587C132.707 147.8 132.249 147.678 132.036 147.308L129.408 142.756C129.194 142.387 129.317 141.929 129.687 141.715C130.057 141.502 130.515 141.624 130.728 141.994L133.357 146.546C133.57 146.915 133.447 147.373 133.077 147.587ZM127.821 138.482C127.451 138.696 126.993 138.573 126.779 138.204L124.151 133.652C123.938 133.282 124.061 132.824 124.431 132.611C124.8 132.397 125.259 132.52 125.472 132.889L128.1 137.441C128.313 137.811 128.19 138.269 127.821 138.482Z" fill="#242424"/>
<path d="M136.848 154.118C136.478 154.332 136.02 154.209 135.807 153.84L134.664 151.861C134.451 151.491 134.574 151.033 134.944 150.82C135.313 150.606 135.772 150.729 135.985 151.098L137.128 153.077C137.341 153.447 137.218 153.905 136.848 154.118Z" fill="#242424"/>
</g>
<defs>
<clipPath id="clip0_414_32">
<rect width="82.3509" height="166.074" fill="white" transform="translate(0.32251 41.1753) rotate(-30)"/>
</clipPath>
</defs>
</svg>
