<svg width="170" height="175" viewBox="0 0 170 175" fill="none" xmlns="http://www.w3.org/2000/svg">
<g clip-path="url(#clip0_411_170)">
<path d="M84.0099 154.593C79.691 150.315 77.3182 144.64 77.3182 138.585C77.3182 132.548 79.691 126.856 84.0099 122.595C87.9703 118.679 90.1553 113.47 90.1553 107.932C90.1553 102.395 87.9703 97.1858 84.0099 93.2701C79.691 89.0094 77.3182 83.3342 77.3182 77.2967C77.3182 71.2592 79.691 65.5668 84.0099 61.3061C87.9703 57.3903 90.1553 52.1809 90.1553 46.6437C90.1553 41.1065 87.9703 35.897 84.0099 31.9813C79.691 27.7206 77.3182 22.0281 77.3182 15.9906C77.3182 9.95318 79.691 4.26072 84.0099 0L85.3073 1.34549C81.3469 5.26121 79.1618 10.4707 79.1618 16.0079C79.1618 21.5451 81.3469 26.7546 85.3073 30.6703C89.6262 34.9482 91.999 40.6235 91.999 46.6609C91.999 52.6984 89.6262 58.3908 85.3073 62.6516C81.3469 66.5673 79.1618 71.7767 79.1618 77.3139C79.1618 82.8512 81.3469 88.0606 85.3073 91.9763C89.6262 96.2543 91.999 101.93 91.999 107.967C91.999 114.004 89.6262 119.697 85.3073 123.958C81.3469 127.873 79.1618 133.083 79.1618 138.62C79.1618 144.157 81.3469 149.367 85.3073 153.282L84.0099 154.593Z" fill="#242424"/>
<path d="M99.5101 154.593C95.1912 150.315 92.8184 144.64 92.8184 138.603C92.8184 132.565 95.1912 126.873 99.5101 122.612C103.471 118.696 105.656 113.487 105.656 107.95C105.656 102.413 103.471 97.2031 99.5101 93.2873C95.1912 89.0094 92.8184 83.3342 92.8184 77.2967C92.8184 71.2592 95.1912 65.5668 99.5101 61.3061C103.471 57.3903 105.656 52.1809 105.656 46.6437C105.656 41.1065 103.471 35.897 99.5101 31.9813C95.1912 27.7033 92.8184 22.0281 92.8184 15.9906C92.8184 9.95318 95.1912 4.26072 99.5101 0L100.807 1.34549C96.8471 5.26121 94.662 10.4707 94.662 16.0079C94.662 21.5451 96.8471 26.7546 100.807 30.6703C105.126 34.9482 107.499 40.6235 107.499 46.6609C107.499 52.6984 105.126 58.3908 100.807 62.6516C96.8471 66.5673 94.662 71.7767 94.662 77.3139C94.662 82.8512 96.8471 88.0606 100.807 91.9763C105.126 96.2543 107.499 101.93 107.499 107.967C107.499 114.004 105.126 119.697 100.807 123.958C96.8471 127.873 94.662 133.083 94.662 138.62C94.662 144.157 96.8471 149.367 100.807 153.282L99.5101 154.593Z" fill="#242424"/>
<path d="M115.01 154.593C110.691 150.315 108.319 144.64 108.319 138.603C108.319 132.565 110.691 126.873 115.01 122.612C118.971 118.696 121.156 113.487 121.156 107.95C121.156 102.413 118.971 97.2031 115.01 93.2873C110.691 89.0094 108.319 83.3342 108.319 77.2967C108.319 71.2592 110.691 65.5668 115.01 61.3061C118.971 57.3903 121.156 52.1809 121.156 46.6437C121.156 41.1065 118.971 35.897 115.01 31.9813C110.691 27.7033 108.319 22.0281 108.319 15.9906C108.319 9.95318 110.691 4.26072 115.01 0L116.308 1.34549C112.347 5.26121 110.162 10.4707 110.162 16.0079C110.162 21.5451 112.347 26.7546 116.308 30.6703C120.627 34.9482 122.999 40.6235 122.999 46.6609C122.999 52.6984 120.627 58.3908 116.308 62.6516C112.347 66.5673 110.162 71.7767 110.162 77.3139C110.162 82.8512 112.347 88.0606 116.308 91.9763C120.627 96.2543 122.999 101.93 122.999 107.967C122.999 114.004 120.627 119.697 116.308 123.958C112.347 127.873 110.162 133.083 110.162 138.62C110.162 144.157 112.347 149.367 116.308 153.282L115.01 154.593Z" fill="#242424"/>
<path d="M130.511 154.593C126.192 150.315 123.819 144.64 123.819 138.603C123.819 132.565 126.192 126.873 130.511 122.612C134.471 118.696 136.656 113.487 136.656 107.95C136.656 102.413 134.471 97.2031 130.511 93.2873C126.192 89.0094 123.819 83.3342 123.819 77.2967C123.819 71.2592 126.192 65.5668 130.511 61.3061C134.471 57.3903 136.656 52.1809 136.656 46.6437C136.656 41.1065 134.471 35.897 130.511 31.9813C126.192 27.7033 123.819 22.0281 123.819 15.9906C123.819 9.95318 126.192 4.26072 130.511 0L131.808 1.34549C127.847 5.26121 125.662 10.4707 125.662 16.0079C125.662 21.5451 127.847 26.7546 131.808 30.6703C136.127 34.9482 138.5 40.6235 138.5 46.6609C138.5 52.6984 136.127 58.3908 131.808 62.6516C127.847 66.5673 125.662 71.7767 125.662 77.3139C125.662 82.8512 127.847 88.0606 131.808 91.9763C136.127 96.2543 138.5 101.93 138.5 107.967C138.5 114.004 136.127 119.697 131.808 123.958C127.847 127.873 125.662 133.083 125.662 138.62C125.662 144.157 127.847 149.367 131.808 153.282L130.511 154.593Z" fill="#242424"/>
<path d="M146.011 154.593C141.692 150.315 139.319 144.64 139.319 138.603C139.319 132.565 141.692 126.873 146.011 122.612C149.971 118.696 152.156 113.487 152.156 107.95C152.156 102.413 149.971 97.2031 146.011 93.2873C141.692 89.0094 139.319 83.3342 139.319 77.2967C139.319 71.2592 141.692 65.5668 146.011 61.3061C149.971 57.3903 152.156 52.1809 152.156 46.6437C152.156 41.1065 149.971 35.897 146.011 31.9813C141.692 27.7033 139.319 22.0281 139.319 15.9906C139.319 9.95318 141.692 4.26072 146.011 0L147.308 1.34549C143.348 5.26121 141.163 10.4707 141.163 16.0079C141.163 21.5451 143.348 26.7546 147.308 30.6703C151.627 34.9482 154 40.6235 154 46.6609C154 52.6984 151.627 58.3908 147.308 62.6516C143.348 66.5673 141.163 71.7767 141.163 77.3139C141.163 82.8512 143.348 88.0606 147.308 91.9763C151.627 96.2543 154 101.93 154 107.967C154 114.004 151.627 119.697 147.308 123.958C143.348 127.873 141.163 133.083 141.163 138.62C141.163 144.157 143.348 149.367 147.308 153.282L146.011 154.593Z" fill="#242424"/>
<path d="M161.511 154.593C157.192 150.315 154.819 144.64 154.819 138.603C154.819 132.565 157.192 126.873 161.511 122.612C165.471 118.696 167.656 113.487 167.656 107.95C167.656 102.413 165.471 97.2031 161.511 93.2873C157.192 89.0094 154.819 83.3342 154.819 77.2967C154.819 71.2592 157.192 65.5668 161.511 61.3061C165.471 57.3903 167.656 52.1809 167.656 46.6437C167.656 41.1065 165.471 35.897 161.511 31.9813C157.192 27.7033 154.819 22.0281 154.819 15.9906C154.819 9.95318 157.192 4.26072 161.511 0L162.808 1.34549C158.848 5.26121 156.663 10.4707 156.663 16.0079C156.663 21.5451 158.848 26.7546 162.808 30.6703C167.127 34.9482 169.5 40.6235 169.5 46.6609C169.5 52.6984 167.127 58.3908 162.808 62.6516C158.848 66.5673 156.663 71.7767 156.663 77.3139C156.663 82.8512 158.848 88.0606 162.808 91.9763C167.127 96.2543 169.5 101.93 169.5 107.967C169.5 114.004 167.127 119.697 162.808 123.958C158.848 127.873 156.663 133.083 156.663 138.62C156.663 144.157 158.848 149.367 162.808 153.282L161.511 154.593Z" fill="#242424"/>
<path d="M20.9336 146.779C20.9336 131.185 33.4465 118.558 48.8613 118.558C28.2058 118.558 10.162 129.909 0.5 146.779C10.162 163.65 28.2058 175 48.8784 175C33.4465 175 20.9336 162.373 20.9336 146.779Z" fill="#242424"/>
<path d="M48.8784 118.558C64.3103 118.558 76.8061 131.202 76.8061 146.779C76.8061 162.373 64.2932 175 48.8784 175C69.551 175 87.5948 163.65 97.2568 146.779C87.5948 129.909 69.551 118.558 48.8784 118.558Z" fill="#242424"/>
<path d="M55.8603 160.89C67.4283 160.89 76.8061 151.413 76.8061 139.724C76.8061 128.035 67.4283 118.558 55.8603 118.558C44.2923 118.558 34.9146 128.035 34.9146 139.724C34.9146 151.413 44.2923 160.89 55.8603 160.89Z" fill="#242424"/>
</g>
<defs>
<clipPath id="clip0_411_170">
<rect width="169" height="175" fill="white" transform="translate(0.5)"/>
</clipPath>
</defs>
</svg>
