<?xml version="1.0" encoding="UTF-8"?>
<svg id="Layer_1" data-name="Layer 1" xmlns="http://www.w3.org/2000/svg" viewBox="0 0 50 50">
  <defs>
    <style>
      .cls-1 {
        fill: #f3f3f3;
      }
    </style>
  </defs>
  <path class="cls-1" d="M32.86,36.36c-.67,0-1.29.36-1.62.94l-4.53,7.84c-.72,1.25-2.52,1.25-3.24,0l-4.53-7.84c-.33-.58-.95-.94-1.62-.94h-9.06c-1.44,0-2.34-1.56-1.62-2.81l4.53-7.84c.33-.58.33-1.29,0-1.87l-4.53-7.84c-.72-1.25.18-2.81,1.62-2.81h9.06c.67,0,1.29-.36,1.62-.94l4.53-7.84c.72-1.25,2.52-1.25,3.24,0l4.53,7.84c.33.58.95.94,1.62.94h9.06c1.44,0,2.34,1.56,1.62,2.81l-4.53,7.84c-.33.58-.33,1.29,0,1.87l4.53,7.84c.72,1.25-.18,2.81-1.62,2.81h-9.06Z"/>
</svg>